<svg width="17" height="16" viewBox="0 0 17 16" fill="none" xmlns="http://www.w3.org/2000/svg">
<path fill-rule="evenodd" clip-rule="evenodd" d="M10.243 0.292621C10.6331 -0.0975404 11.2655 -0.0975405 11.6556 0.292621L13.7744 2.41197C13.9913 2.62887 14.0876 2.92069 14.0633 3.20413C14.0876 3.48757 13.9913 3.77939 13.7744 3.99629L11.6556 6.11564C11.2655 6.5058 10.6331 6.5058 10.243 6.11564C9.85295 5.72548 9.85295 5.0929 10.243 4.70274L10.7424 4.20319H5.66121V2.20505H10.7424L10.243 1.70552C9.85295 1.31536 9.85295 0.682783 10.243 0.292621ZM5.66103 2.20505H5.6609C2.90271 2.20505 0.666748 4.44155 0.666748 7.20041V7.20044C0.666748 7.75221 1.11394 8.19951 1.66558 8.19951C2.21722 8.19951 2.66441 7.75221 2.66441 7.20044V7.20041H2.66447C2.66448 5.5451 4.00605 4.20321 5.66096 4.20321H5.66103V2.20505ZM7.09048 15.7074C6.70041 16.0975 6.06798 16.0975 5.67792 15.7074L3.55908 13.588C3.34223 13.3711 3.24593 13.0793 3.27019 12.7959C3.24593 12.5124 3.34223 12.2206 3.55908 12.0037L5.67792 9.88435C6.06798 9.49419 6.70041 9.49419 7.09048 9.88435C7.48054 10.2745 7.48054 10.9071 7.09048 11.2972L6.59105 11.7968H11.6723V13.7949H6.59107L7.09048 14.2945C7.48054 14.6846 7.48054 15.3172 7.09048 15.7074ZM11.6726 13.7949H11.6725V11.7968H11.6725C13.3275 11.7968 14.669 10.4549 14.669 8.79958H14.6691V8.79955C14.6691 8.24778 15.1163 7.80048 15.6679 7.80048C16.2196 7.80048 16.6667 8.24778 16.6667 8.79955V8.79958C16.6667 11.5584 14.4308 13.7949 11.6726 13.7949Z" fill="#660099"/>
</svg>
