<svg width="24" height="25" viewBox="0 0 24 25" fill="none" xmlns="http://www.w3.org/2000/svg">
<path fill-rule="evenodd" clip-rule="evenodd" d="M19.1718 5.3268L18.7292 3.67294C18.4433 2.606 17.3466 1.97284 16.2797 2.25872L14.6247 2.70199L13.4141 1.49089C12.633 0.709842 11.3667 0.709841 10.5856 1.49089L9.37441 2.7016L7.72006 2.25872C6.65312 1.97284 5.55645 2.606 5.27057 3.67294L4.8268 5.32757L3.17281 5.77069C2.10588 6.05658 1.47271 7.15325 1.75859 8.22018L2.20164 9.87405L0.990761 11.0858C0.209713 11.8668 0.209712 13.1332 0.990761 13.9142L2.2016 15.125L1.75859 16.7798C1.47271 17.8467 2.10588 18.9434 3.17281 19.2293L4.82709 19.6724L5.27057 21.327C5.55645 22.394 6.65312 23.0271 7.72006 22.7413L9.37405 22.2977L10.5856 23.5091C11.3667 24.2901 12.633 24.2901 13.4141 23.5091L14.6245 22.2976L16.2797 22.7413C17.3466 23.0271 18.4433 22.394 18.7292 21.327L19.1724 19.6723L20.8269 19.2293C21.8938 18.9434 22.527 17.8467 22.2411 16.7798L21.7974 15.1247L23.009 13.9142C23.79 13.1332 23.79 11.8668 23.009 11.0858L21.7976 9.87489L22.2411 8.22018C22.527 7.15325 21.8938 6.05658 20.8269 5.7707L19.1718 5.3268ZM12.3937 3.29914C13.4041 4.30993 14.877 4.70483 16.2576 4.33506L16.797 4.19057L16.941 4.72853C17.3106 6.10897 18.3885 7.18739 19.7688 7.55757L20.3092 7.7025L20.1647 8.24143C19.7947 9.62211 20.1895 11.0953 21.2005 12.1059L21.5946 12.4999L21.2011 12.8931C20.1896 13.9038 19.7944 15.3775 20.1647 16.7587L20.3092 17.2974L19.7708 17.4415C18.39 17.8112 17.3115 18.8897 16.9416 20.2704L16.7972 20.8094L16.2581 20.6649C14.8771 20.2947 13.4035 20.6899 12.3929 21.7013L11.9998 22.0948L11.6047 21.6998C10.594 20.6893 9.12094 20.2949 7.74052 20.665L7.20232 20.8094L7.05774 20.2699C6.68777 18.8896 5.60952 17.8115 4.22914 17.4417L3.69035 17.2974L3.83493 16.7573C4.20442 15.3771 3.80966 13.9046 2.79932 12.8944L2.40487 12.4999L2.80043 12.1041C3.81016 11.0937 4.20441 9.62145 3.83477 8.24163L3.69035 7.7025L4.22915 7.55814C5.60927 7.18839 6.68737 6.11058 7.05748 4.73056L7.20232 4.19052L7.74226 4.33507C9.1221 4.70446 10.5942 4.31 11.6045 3.30017L11.9998 2.90505L12.3937 3.29914Z" fill="#660099"/>
<path d="M12 6C12.5272 6 12.9591 6.40794 12.9973 6.92537L13 7V7.5H14.5C15.0272 7.5 15.4591 7.90794 15.4973 8.42537L15.5 8.5C15.5 9.02718 15.0921 9.45908 14.5746 9.49726L14.5 9.5H11C10.4477 9.5 10 9.94771 10 10.5C10 11.0272 10.4079 11.4591 10.9254 11.4973L11 11.5H13C14.6569 11.5 16 12.8431 16 14.5C16 16.1192 14.7172 17.4388 13.1125 17.4979L13 17.5V18C13 18.5523 12.5523 19 12 19C11.4728 19 11.0409 18.5921 11.0027 18.0746L11 18V17.5H9.5C8.97282 17.5 8.54092 17.0921 8.50274 16.5746L8.5 16.5C8.5 15.9728 8.90794 15.5409 9.42537 15.5027L9.5 15.5H13C13.5523 15.5 14 15.0523 14 14.5C14 13.9728 13.5921 13.5409 13.0746 13.5027L13 13.5H11C9.34315 13.5 8 12.1569 8 10.5C8 8.84315 9.34315 7.5 11 7.5V7L11.0027 6.92537C11.0409 6.40794 11.4728 6 12 6Z" fill="#660099"/>
</svg>
