<svg width="24" height="23" viewBox="0 0 24 23" fill="none" xmlns="http://www.w3.org/2000/svg">
<path fill-rule="evenodd" clip-rule="evenodd" d="M21.5 0.5C22.6046 0.5 23.5 1.39543 23.5 2.5V20.5C23.5 21.6046 22.6046 22.5 21.5 22.5H20.5C19.3954 22.5 18.5 21.6046 18.5 20.5V2.5C18.5 1.39543 19.3954 0.5 20.5 0.5H21.5ZM21.5 2.5H20.5V20.5H21.5V2.5Z" fill="#660099"/>
<path fill-rule="evenodd" clip-rule="evenodd" d="M9.5 11.5C10.6046 11.5 11.5 12.3954 11.5 13.5V20.5C11.5 21.6046 10.6046 22.5 9.5 22.5H8.5C7.39543 22.5 6.5 21.6046 6.5 20.5V13.5C6.5 12.3954 7.39543 11.5 8.5 11.5H9.5ZM9.5 13.5H8.5V20.5H9.5V13.5Z" fill="#660099"/>
<path fill-rule="evenodd" clip-rule="evenodd" d="M17.5 8C17.5 6.89543 16.6046 6 15.5 6H14.5C13.3954 6 12.5 6.89543 12.5 8V20.5C12.5 21.6046 13.3954 22.5 14.5 22.5H15.5C16.6046 22.5 17.5 21.6046 17.5 20.5V8ZM14.5 20.5V8H15.5V20.5H14.5Z" fill="#660099"/>
<path fill-rule="evenodd" clip-rule="evenodd" d="M3.5 17C4.60457 17 5.5 17.8954 5.5 19V20.5C5.5 21.6046 4.60457 22.5 3.5 22.5H2.5C1.39543 22.5 0.5 21.6046 0.5 20.5V19C0.5 17.8954 1.39543 17 2.5 17H3.5ZM2.5 19V20.5H3.5V19H2.5Z" fill="#660099"/>
</svg>
