<svg width="24" height="25" viewBox="0 0 24 25" fill="none" xmlns="http://www.w3.org/2000/svg">
<path d="M0 6.5C0 3.18629 2.68629 0.5 6 0.5H18C21.3137 0.5 24 3.18629 24 6.5V18.5C24 21.8137 21.3137 24.5 18 24.5H6C2.68629 24.5 0 21.8137 0 18.5V6.5Z" fill="#1A1414"/>
<path fill-rule="evenodd" clip-rule="evenodd" d="M12.1906 3.91748C7.35154 3.91748 3.42871 7.71967 3.42871 12.4097C3.42871 17.1002 7.35154 20.9021 12.1906 20.9021C17.0296 20.9021 20.9525 17.1002 20.9525 12.4097C20.9525 7.71967 17.0296 3.91748 12.1906 3.91748ZM16.3013 16.2287C16.1448 16.4678 15.8105 16.5427 15.5546 16.3969C13.509 15.2313 10.9344 14.9682 7.90222 15.614C7.60984 15.6764 7.31873 15.5057 7.25203 15.2334C7.18503 14.9608 7.36767 14.6894 7.66052 14.6272C10.9787 13.9198 13.825 14.2242 16.1211 15.5324C16.3771 15.6783 16.4577 15.99 16.3013 16.2287ZM17.4227 13.927C17.2244 14.2514 16.8035 14.3533 16.482 14.154C14.1243 12.6931 10.5293 12.2699 7.74011 13.1234C7.37852 13.2335 6.9965 13.0281 6.88649 12.664C6.77747 12.2995 6.98158 11.9151 7.34269 11.8042C10.5291 10.8296 14.4899 11.3015 17.1977 12.9791C17.5193 13.1786 17.6203 13.6031 17.4227 13.927ZM17.4195 11.5537C14.5734 9.8374 9.87851 9.67944 7.16134 10.5167C6.72498 10.6513 6.26355 10.4011 6.13127 9.95822C5.99903 9.5149 6.24524 9.04666 6.68186 8.91213C9.80086 7.95068 14.9859 8.13637 18.2627 10.1113C18.655 10.3479 18.7838 10.8624 18.5513 11.2604C18.3183 11.6588 17.8111 11.7902 17.4195 11.5537Z" fill="#1FD661"/>
</svg>
