<svg width="24" height="25" viewBox="0 0 24 25" fill="none" xmlns="http://www.w3.org/2000/svg">
<path d="M23.5001 12.5C23.5001 6.14873 18.3514 1 12.0001 1C11.4478 1 11.0001 1.44772 11.0001 2C11.0001 2.55228 11.4478 3 12.0001 3C17.2468 3 21.5001 7.25329 21.5001 12.5C21.5001 13.0523 21.9478 13.5 22.5001 13.5C23.0524 13.5 23.5001 13.0523 23.5001 12.5Z" fill="#660099"/>
<path fill-rule="evenodd" clip-rule="evenodd" d="M6.67762 4.27367C5.61731 3.24039 4.16038 3.24223 3.10845 4.28002L1.96984 5.4211C1.93633 5.45429 1.90417 5.48601 1.87286 5.51673L1.60089 5.77943C0.948242 6.39741 0.589279 7.1814 0.517933 8.09103C0.432385 9.2121 0.646552 10.2863 1.12382 11.5571C1.87644 13.584 3.02694 15.4723 4.56992 17.3048C6.54073 19.6482 8.88813 21.488 11.6093 22.8108C13.0736 23.5218 14.3595 23.9179 15.7097 23.9917C16.9196 24.0595 17.9441 23.7138 18.7452 22.8804L18.9969 22.6066C19.1149 22.4807 19.2446 22.3493 19.4267 22.1701L20.1524 21.459L20.2855 21.3209C21.2628 20.2512 21.239 18.8411 20.2042 17.7998L17.7641 15.3641L17.6722 15.2768C16.6198 14.3173 15.2103 14.3464 14.1864 15.3637L13.0555 16.4918L12.9899 16.5581L12.7163 16.4206C12.6454 16.3835 12.5902 16.3528 12.5372 16.321L12.2594 16.143C11.075 15.3582 9.99553 14.3415 8.95469 13.0649C8.51654 12.5267 8.17705 12.0241 7.92146 11.5187L8.38938 11.053L9.10693 10.3297C10.1589 9.27138 10.1862 7.87379 9.18973 6.79377L9.00506 6.60433L6.83496 4.42841L6.67762 4.27367ZM3.44375 6.77615L4.51285 5.70406C4.78836 5.43209 5.0004 5.43179 5.28006 5.70431L5.99764 6.41948L7.68176 8.1103L7.73362 8.16447C7.99296 8.44694 7.97622 8.63036 7.68763 8.92072L6.69582 9.91794L6.56678 10.0458L6.20294 10.4013C5.76948 10.8345 5.67431 11.3738 5.89956 11.9088C6.24949 12.7415 6.74297 13.516 7.4042 14.3282C8.64441 15.8493 9.9565 17.0612 11.4375 17.9927L11.5663 18.0704C11.672 18.132 11.7789 18.1888 11.9247 18.2621L12.4058 18.5023L12.5684 18.5883C13.1092 18.8499 13.6769 18.7189 14.0974 18.2853L14.6411 17.7335L15.5954 16.7832C15.8709 16.5095 16.0776 16.5095 16.3564 16.7847L18.7859 19.2099L18.8365 19.2633C19.0568 19.5083 19.0556 19.6982 18.8273 19.9524L18.7347 20.0484L18.0114 20.757C17.7991 20.966 17.6482 21.1196 17.5028 21.2763L17.3571 21.4363C16.9727 21.8671 16.5083 22.0333 15.8203 21.9947C14.7707 21.9374 13.7278 21.6161 12.4833 21.0119C10.0165 19.8128 7.89215 18.1477 6.10024 16.0171C4.69766 14.3513 3.66625 12.6585 2.99749 10.8575C2.61253 9.83243 2.45226 9.02855 2.51203 8.24534C2.54535 7.82054 2.69164 7.50102 2.97755 7.2303L3.23617 6.98104C3.30157 6.91712 3.36938 6.85017 3.44375 6.77615Z" fill="#660099"/>
<path d="M12.0001 5C16.1422 5 19.5001 8.35786 19.5001 12.5C19.5001 13.0523 19.0524 13.5 18.5001 13.5C17.9478 13.5 17.5001 13.0523 17.5001 12.5C17.5001 9.46243 15.0376 7 12.0001 7C11.4478 7 11.0001 6.55228 11.0001 6C11.0001 5.44772 11.4478 5 12.0001 5Z" fill="#660099"/>
</svg>
