<svg width="24" height="25" viewBox="0 0 24 25" fill="none" xmlns="http://www.w3.org/2000/svg">
<path d="M0 6.5C0 3.18629 2.68629 0.5 6 0.5H18C21.3137 0.5 24 3.18629 24 6.5V18.5C24 21.8137 21.3137 24.5 18 24.5H6C2.68629 24.5 0 21.8137 0 18.5V6.5Z" fill="url(#paint0_linear_13_935)"/>
<path fill-rule="evenodd" clip-rule="evenodd" d="M16.1337 14.0577C15.9202 13.9509 14.871 13.4347 14.6754 13.3636C14.4797 13.2924 14.3375 13.2568 14.1952 13.4704C14.053 13.6839 13.6439 14.1645 13.5195 14.3068C13.395 14.4493 13.2705 14.4671 13.0571 14.3602C12.8437 14.2535 12.1561 14.0282 11.3409 13.3013C10.7065 12.7357 10.2781 12.037 10.1537 11.8234C10.0292 11.6098 10.1404 11.4944 10.2473 11.388C10.3433 11.2924 10.4607 11.1388 10.5674 11.0142C10.6741 10.8896 10.7097 10.8007 10.7808 10.6583C10.8519 10.5159 10.8164 10.3913 10.763 10.2845C10.7097 10.1777 10.2829 9.12762 10.105 8.70047C9.93177 8.28447 9.75585 8.34075 9.62486 8.33423C9.50051 8.32803 9.35807 8.32672 9.21579 8.32672C9.07355 8.32672 8.84233 8.3801 8.64672 8.59368C8.45111 8.80726 7.89981 9.32344 7.89981 10.3735C7.89981 11.4236 8.66449 12.4381 8.77123 12.5805C8.87794 12.7229 10.2761 14.8777 12.4169 15.8019C12.926 16.0217 13.3236 16.1529 13.6335 16.2513C14.1448 16.4137 14.61 16.3907 14.9777 16.3358C15.3877 16.2746 16.2404 15.8197 16.4182 15.3213C16.596 14.823 16.596 14.3959 16.5427 14.3068C16.4893 14.2179 16.347 14.1645 16.1337 14.0577ZM12.2398 19.3728H12.2369C10.963 19.3722 9.71365 19.0302 8.62372 18.3835L8.36448 18.2297L5.67767 18.9343L6.39484 16.3155L6.22602 16.0471C5.51541 14.9171 5.14007 13.6112 5.14064 12.2703C5.1422 8.35737 8.32682 5.17399 12.2426 5.17399C14.1387 5.17472 15.9211 5.91388 17.2614 7.25526C18.6017 8.59667 19.3395 10.3797 19.3387 12.276C19.3371 16.1891 16.1525 19.3728 12.2398 19.3728ZM18.2815 6.23597C16.669 4.62207 14.5245 3.73284 12.2397 3.73193C7.53198 3.73193 3.70043 7.56196 3.69858 12.2697C3.69793 13.7746 4.09124 15.2435 4.83865 16.5383L3.62695 20.9628L8.15471 19.7755C9.40222 20.4557 10.8068 20.8142 12.2363 20.8148H12.2398H12.2398C16.947 20.8148 20.7789 16.9843 20.7808 12.2765C20.7817 9.99507 19.8941 7.84984 18.2815 6.23597Z" fill="white"/>
<defs>
<linearGradient id="paint0_linear_13_935" x1="24" y1="24.5" x2="24" y2="0.500011" gradientUnits="userSpaceOnUse">
<stop stop-color="#00D02D"/>
<stop offset="1" stop-color="#00FD73"/>
</linearGradient>
</defs>
</svg>
